<?xml version="1.0" encoding="UTF-8" standalone="no"?>
<!DOCTYPE svg PUBLIC "-//W3C//DTD SVG 1.1//EN"
 "http://www.w3.org/Graphics/SVG/1.1/DTD/svg11.dtd">
<!-- Generated by graphviz version 2.40.1 (20161225.0304)
 -->
<!-- Title: mlrun&#45;flow Pages: 1 -->
<svg width="1012pt" height="98pt"
 viewBox="0.00 0.00 1012.34 98.00" xmlns="http://www.w3.org/2000/svg" xmlns:xlink="http://www.w3.org/1999/xlink">
<g id="graph0" class="graph" transform="scale(1 1) rotate(0) translate(4 94)">
<title>mlrun&#45;flow</title>
<polygon fill="#ffffff" stroke="transparent" points="-4,4 -4,-94 1008.3418,-94 1008.3418,4 -4,4"/>
<!-- _start -->
<g id="node1" class="node">
<title>_start</title>
<polygon fill="#d3d3d3" stroke="#000000" points="38.5476,-27.0493 40.698,-27.1479 42.8263,-27.2953 44.9236,-27.4913 46.9815,-27.7353 48.9917,-28.0266 50.9463,-28.3645 52.8377,-28.7479 54.6587,-29.1759 56.4025,-29.6472 58.0628,-30.1606 59.634,-30.7147 61.1107,-31.308 62.4882,-31.9388 63.7625,-32.6054 64.9302,-33.3059 65.9882,-34.0385 66.9343,-34.8012 67.7669,-35.5918 68.4849,-36.4082 69.0878,-37.2481 69.5758,-38.1093 69.9496,-38.9894 70.2102,-39.886 70.3595,-40.7965 70.3997,-41.7186 70.3334,-42.6497 70.1636,-43.5873 69.8937,-44.5287 69.5276,-45.4713 69.0691,-46.4127 68.5225,-47.3503 67.8923,-48.2814 67.1831,-49.2035 66.3996,-50.114 65.5464,-51.0106 64.6285,-51.8907 63.6504,-52.7519 62.617,-53.5918 61.5329,-54.4082 60.4024,-55.1988 59.2299,-55.9615 58.0197,-56.6941 56.7755,-57.3946 55.5012,-58.0612 54.2002,-58.692 52.8757,-59.2853 51.5309,-59.8394 50.1684,-60.3528 48.7908,-60.8241 47.4003,-61.2521 45.9989,-61.6355 44.5886,-61.9734 43.1708,-62.2647 41.7472,-62.5087 40.3189,-62.7047 38.8872,-62.8521 37.4531,-62.9507 36.0175,-63 34.5815,-63 33.146,-62.9507 31.7119,-62.8521 30.2801,-62.7047 28.8519,-62.5087 27.4282,-62.2647 26.0105,-61.9734 24.6001,-61.6355 23.1988,-61.2521 21.8083,-60.8241 20.4306,-60.3528 19.0681,-59.8394 17.7233,-59.2853 16.3989,-58.692 15.0979,-58.0612 13.8236,-57.3946 12.5794,-56.6941 11.3691,-55.9615 10.1967,-55.1988 9.0662,-54.4082 7.982,-53.5918 6.9486,-52.7519 5.9706,-51.8907 5.0526,-51.0106 4.1995,-50.114 3.4159,-49.2035 2.7067,-48.2814 2.0765,-47.3503 1.53,-46.4127 1.0715,-45.4713 .7053,-44.5287 .4355,-43.5873 .2657,-42.6497 .1993,-41.7186 .2395,-40.7965 .3888,-39.886 .6495,-38.9894 1.0232,-38.1093 1.5112,-37.2481 2.1141,-36.4082 2.8321,-35.5918 3.6647,-34.8012 4.6109,-34.0385 5.6689,-33.3059 6.8365,-32.6054 8.1108,-31.9388 9.4884,-31.308 10.9651,-30.7147 12.5362,-30.1606 14.1966,-29.6472 15.9404,-29.1759 17.7614,-28.7479 19.6528,-28.3645 21.6074,-28.0266 23.6176,-27.7353 25.6755,-27.4913 27.7728,-27.2953 29.901,-27.1479 32.0515,-27.0493 34.2154,-27 36.3837,-27 38.5476,-27.0493"/>
<text text-anchor="middle" x="35.2995" y="-41.3" font-family="Times,serif" font-size="14.00" fill="#000000">start</text>
</g>
<!-- MyMap -->
<g id="node2" class="node">
<title>MyMap</title>
<ellipse fill="none" stroke="#000000" cx="152.745" cy="-45" rx="46.2923" ry="18"/>
<text text-anchor="middle" x="152.745" y="-41.3" font-family="Times,serif" font-size="14.00" fill="#000000">MyMap</text>
</g>
<!-- _start&#45;&gt;MyMap -->
<g id="edge1" class="edge">
<title>_start&#45;&gt;MyMap</title>
<path fill="none" stroke="#000000" d="M69.9018,-45C78.1609,-45 87.1905,-45 96.1538,-45"/>
<polygon fill="#000000" stroke="#000000" points="96.2009,-48.5001 106.2009,-45 96.2009,-41.5001 96.2009,-48.5001"/>
</g>
<!-- storey.Extend -->
<g id="node3" class="node">
<title>storey.Extend</title>
<ellipse fill="none" stroke="#000000" cx="310.2842" cy="-45" rx="75.2868" ry="18"/>
<text text-anchor="middle" x="310.2842" y="-41.3" font-family="Times,serif" font-size="14.00" fill="#000000">storey.Extend</text>
</g>
<!-- MyMap&#45;&gt;storey.Extend -->
<g id="edge2" class="edge">
<title>MyMap&#45;&gt;storey.Extend</title>
<path fill="none" stroke="#000000" d="M199.1598,-45C207.1838,-45 215.7499,-45 224.4316,-45"/>
<polygon fill="#000000" stroke="#000000" points="224.6509,-48.5001 234.6509,-45 224.6508,-41.5001 224.6509,-48.5001"/>
</g>
<!-- filter -->
<g id="node4" class="node">
<title>filter</title>
<ellipse fill="none" stroke="#000000" cx="455.4745" cy="-45" rx="33.5952" ry="18"/>
<text text-anchor="middle" x="455.4745" y="-41.3" font-family="Times,serif" font-size="14.00" fill="#000000">filter</text>
</g>
<!-- storey.Extend&#45;&gt;filter -->
<g id="edge3" class="edge">
<title>storey.Extend&#45;&gt;filter</title>
<path fill="none" stroke="#000000" d="M385.8561,-45C394.6736,-45 403.4325,-45 411.6112,-45"/>
<polygon fill="#000000" stroke="#000000" points="411.6214,-48.5001 421.6213,-45 411.6213,-41.5001 411.6214,-48.5001"/>
</g>
<!-- FeaturesetValidator -->
<g id="node5" class="node">
<title>FeaturesetValidator</title>
<ellipse fill="none" stroke="#000000" cx="627.9624" cy="-45" rx="102.8821" ry="18"/>
<text text-anchor="middle" x="627.9624" y="-41.3" font-family="Times,serif" font-size="14.00" fill="#000000">FeaturesetValidator</text>
</g>
<!-- filter&#45;&gt;FeaturesetValidator -->
<g id="edge4" class="edge">
<title>filter&#45;&gt;FeaturesetValidator</title>
<path fill="none" stroke="#000000" d="M489.5525,-45C497.3395,-45 506.0352,-45 515.1713,-45"/>
<polygon fill="#000000" stroke="#000000" points="515.2357,-48.5001 525.2357,-45 515.2356,-41.5001 515.2357,-48.5001"/>
</g>
<!-- Aggregates -->
<g id="node6" class="node">
<title>Aggregates</title>
<ellipse fill="none" stroke="#000000" cx="830.9976" cy="-45" rx="64.189" ry="18"/>
<text text-anchor="middle" x="830.9976" y="-41.3" font-family="Times,serif" font-size="14.00" fill="#000000">Aggregates</text>
</g>
<!-- FeaturesetValidator&#45;&gt;Aggregates -->
<g id="edge5" class="edge">
<title>FeaturesetValidator&#45;&gt;Aggregates</title>
<path fill="none" stroke="#000000" d="M730.6696,-45C739.3404,-45 747.9997,-45 756.3944,-45"/>
<polygon fill="#000000" stroke="#000000" points="756.4857,-48.5001 766.4857,-45 756.4857,-41.5001 756.4857,-48.5001"/>
</g>
<!-- parquet -->
<g id="node7" class="node">
<title>parquet</title>
<path fill="none" stroke="#000000" d="M1004.3418,-86.7273C1004.3418,-88.5331 987.982,-90 967.8418,-90 947.7017,-90 931.3418,-88.5331 931.3418,-86.7273 931.3418,-86.7273 931.3418,-57.2727 931.3418,-57.2727 931.3418,-55.4669 947.7017,-54 967.8418,-54 987.982,-54 1004.3418,-55.4669 1004.3418,-57.2727 1004.3418,-57.2727 1004.3418,-86.7273 1004.3418,-86.7273"/>
<path fill="none" stroke="#000000" d="M1004.3418,-86.7273C1004.3418,-84.9214 987.982,-83.4545 967.8418,-83.4545 947.7017,-83.4545 931.3418,-84.9214 931.3418,-86.7273"/>
<text text-anchor="middle" x="967.8418" y="-68.3" font-family="Times,serif" font-size="14.00" fill="#000000">parquet</text>
</g>
<!-- Aggregates&#45;&gt;parquet -->
<g id="edge6" class="edge">
<title>Aggregates&#45;&gt;parquet</title>
<path fill="none" stroke="#000000" d="M883.9051,-55.4389C896.2444,-57.8735 909.2943,-60.4483 921.3324,-62.8235"/>
<polygon fill="#000000" stroke="#000000" points="920.6803,-66.2622 931.1687,-64.7642 922.0353,-59.3946 920.6803,-66.2622"/>
</g>
<!-- nosql -->
<g id="node8" class="node">
<title>nosql</title>
<path fill="none" stroke="#000000" d="M995.3418,-32.7273C995.3418,-34.5331 983.0159,-36 967.8418,-36 952.6678,-36 940.3418,-34.5331 940.3418,-32.7273 940.3418,-32.7273 940.3418,-3.2727 940.3418,-3.2727 940.3418,-1.4669 952.6678,0 967.8418,0 983.0159,0 995.3418,-1.4669 995.3418,-3.2727 995.3418,-3.2727 995.3418,-32.7273 995.3418,-32.7273"/>
<path fill="none" stroke="#000000" d="M995.3418,-32.7273C995.3418,-30.9214 983.0159,-29.4545 967.8418,-29.4545 952.6678,-29.4545 940.3418,-30.9214 940.3418,-32.7273"/>
<text text-anchor="middle" x="967.8418" y="-14.3" font-family="Times,serif" font-size="14.00" fill="#000000">nosql</text>
</g>
<!-- Aggregates&#45;&gt;nosql -->
<g id="edge7" class="edge">
<title>Aggregates&#45;&gt;nosql</title>
<path fill="none" stroke="#000000" d="M883.9051,-34.5611C899.3986,-31.5042 916.0123,-28.2262 930.3369,-25.3999"/>
<polygon fill="#000000" stroke="#000000" points="931.1806,-28.801 940.314,-23.4314 929.8256,-21.9334 931.1806,-28.801"/>
</g>
</g>
</svg>
