<?xml version="1.0" encoding="UTF-8" standalone="no"?>
<!DOCTYPE svg PUBLIC "-//W3C//DTD SVG 1.1//EN"
 "http://www.w3.org/Graphics/SVG/1.1/DTD/svg11.dtd">
<!-- Generated by graphviz version 2.40.1 (20161225.0304)
 -->
<!-- Title: mlrun&#45;flow Pages: 1 -->
<svg width="636pt" height="204pt"
 viewBox="0.00 0.00 636.27 204.00" xmlns="http://www.w3.org/2000/svg" xmlns:xlink="http://www.w3.org/1999/xlink">
<g id="graph0" class="graph" transform="scale(1 1) rotate(0) translate(4 200)">
<title>mlrun&#45;flow</title>
<polygon fill="#ffffff" stroke="transparent" points="-4,4 -4,-200 632.2712,-200 632.2712,4 -4,4"/>
<g id="clust1" class="cluster">
<title>cluster_ensemble</title>
<polygon fill="none" stroke="#000000" points="382.4803,-46 382.4803,-152 620.2712,-152 620.2712,-46 382.4803,-46"/>
</g>
<!-- _start -->
<g id="node1" class="node">
<title>_start</title>
<polygon fill="#d3d3d3" stroke="#000000" points="38.5476,-120.0493 40.698,-120.1479 42.8263,-120.2953 44.9236,-120.4913 46.9815,-120.7353 48.9917,-121.0266 50.9463,-121.3645 52.8377,-121.7479 54.6587,-122.1759 56.4025,-122.6472 58.0628,-123.1606 59.634,-123.7147 61.1107,-124.308 62.4882,-124.9388 63.7625,-125.6054 64.9302,-126.3059 65.9882,-127.0385 66.9343,-127.8012 67.7669,-128.5918 68.4849,-129.4082 69.0878,-130.2481 69.5758,-131.1093 69.9496,-131.9894 70.2102,-132.886 70.3595,-133.7965 70.3997,-134.7186 70.3334,-135.6497 70.1636,-136.5873 69.8937,-137.5287 69.5276,-138.4713 69.0691,-139.4127 68.5225,-140.3503 67.8923,-141.2814 67.1831,-142.2035 66.3996,-143.114 65.5464,-144.0106 64.6285,-144.8907 63.6504,-145.7519 62.617,-146.5918 61.5329,-147.4082 60.4024,-148.1988 59.2299,-148.9615 58.0197,-149.6941 56.7755,-150.3946 55.5012,-151.0612 54.2002,-151.692 52.8757,-152.2853 51.5309,-152.8394 50.1684,-153.3528 48.7908,-153.8241 47.4003,-154.2521 45.9989,-154.6355 44.5886,-154.9734 43.1708,-155.2647 41.7472,-155.5087 40.3189,-155.7047 38.8872,-155.8521 37.4531,-155.9507 36.0175,-156 34.5815,-156 33.146,-155.9507 31.7119,-155.8521 30.2801,-155.7047 28.8519,-155.5087 27.4282,-155.2647 26.0105,-154.9734 24.6001,-154.6355 23.1988,-154.2521 21.8083,-153.8241 20.4306,-153.3528 19.0681,-152.8394 17.7233,-152.2853 16.3989,-151.692 15.0979,-151.0612 13.8236,-150.3946 12.5794,-149.6941 11.3691,-148.9615 10.1967,-148.1988 9.0662,-147.4082 7.982,-146.5918 6.9486,-145.7519 5.9706,-144.8907 5.0526,-144.0106 4.1995,-143.114 3.4159,-142.2035 2.7067,-141.2814 2.0765,-140.3503 1.53,-139.4127 1.0715,-138.4713 .7053,-137.5287 .4355,-136.5873 .2657,-135.6497 .1993,-134.7186 .2395,-133.7965 .3888,-132.886 .6495,-131.9894 1.0232,-131.1093 1.5112,-130.2481 2.1141,-129.4082 2.8321,-128.5918 3.6647,-127.8012 4.6109,-127.0385 5.6689,-126.3059 6.8365,-125.6054 8.1108,-124.9388 9.4884,-124.308 10.9651,-123.7147 12.5362,-123.1606 14.1966,-122.6472 15.9404,-122.1759 17.7614,-121.7479 19.6528,-121.3645 21.6074,-121.0266 23.6176,-120.7353 25.6755,-120.4913 27.7728,-120.2953 29.901,-120.1479 32.0515,-120.0493 34.2154,-120 36.3837,-120 38.5476,-120.0493"/>
<text text-anchor="middle" x="35.2995" y="-134.3" font-family="Times,serif" font-size="14.00" fill="#000000">start</text>
</g>
<!-- enrich -->
<g id="node2" class="node">
<title>enrich</title>
<ellipse fill="none" stroke="#000000" cx="146.8955" cy="-138" rx="40.0939" ry="18"/>
<text text-anchor="middle" x="146.8955" y="-134.3" font-family="Times,serif" font-size="14.00" fill="#000000">enrich</text>
</g>
<!-- _start&#45;&gt;enrich -->
<g id="edge1" class="edge">
<title>_start&#45;&gt;enrich</title>
<path fill="none" stroke="#000000" d="M69.9975,-138C78.2752,-138 87.2796,-138 96.1148,-138"/>
<polygon fill="#000000" stroke="#000000" points="96.3553,-141.5001 106.3553,-138 96.3552,-134.5001 96.3553,-141.5001"/>
</g>
<!-- pre&#45;process -->
<g id="node3" class="node">
<title>pre&#45;process</title>
<ellipse fill="none" stroke="#000000" cx="288.8361" cy="-138" rx="65.7887" ry="18"/>
<text text-anchor="middle" x="288.8361" y="-134.3" font-family="Times,serif" font-size="14.00" fill="#000000">pre&#45;process</text>
</g>
<!-- enrich&#45;&gt;pre&#45;process -->
<g id="edge2" class="edge">
<title>enrich&#45;&gt;pre&#45;process</title>
<path fill="none" stroke="#000000" d="M187.57,-138C195.5188,-138 204.0918,-138 212.767,-138"/>
<polygon fill="#000000" stroke="#000000" points="212.9665,-141.5001 222.9665,-138 212.9664,-134.5001 212.9665,-141.5001"/>
</g>
<!-- catcher -->
<g id="node4" class="node">
<title>catcher</title>
<ellipse fill="none" stroke="#000000" cx="454.2771" cy="-178" rx="46.2923" ry="18"/>
<text text-anchor="middle" x="454.2771" y="-174.3" font-family="Times,serif" font-size="14.00" fill="#000000">catcher</text>
</g>
<!-- pre&#45;process&#45;&gt;catcher -->
<g id="edge3" class="edge">
<title>pre&#45;process&#45;&gt;catcher</title>
<path fill="none" stroke="#000000" stroke-dasharray="5,2" d="M338.4738,-150.0013C359.495,-155.0838 383.9289,-160.9913 404.9196,-166.0664"/>
<polygon fill="#000000" stroke="#000000" points="404.375,-169.5355 414.9175,-168.4837 406.0201,-162.7316 404.375,-169.5355"/>
</g>
<!-- ensemble -->
<g id="node5" class="node">
<title>ensemble</title>
<polygon fill="none" stroke="#000000" points="513.8842,-90.5442 513.8842,-105.4558 478.9672,-116 429.5871,-116 394.67,-105.4558 394.67,-90.5442 429.5871,-80 478.9672,-80 513.8842,-90.5442"/>
<polygon fill="none" stroke="#000000" points="517.8715,-87.5709 517.8715,-108.4291 479.5543,-120 428.9999,-120 390.6827,-108.4291 390.6827,-87.5709 428.9999,-76 479.5543,-76 517.8715,-87.5709"/>
<text text-anchor="middle" x="454.2771" y="-94.3" font-family="Times,serif" font-size="14.00" fill="#000000">ensemble</text>
</g>
<!-- pre&#45;process&#45;&gt;ensemble -->
<g id="edge6" class="edge">
<title>pre&#45;process&#45;&gt;ensemble</title>
<path fill="none" stroke="#000000" d="M338.4738,-125.9987C354.6253,-122.0936 372.7914,-117.7015 389.8624,-113.5741"/>
<polygon fill="#000000" stroke="#000000" points="390.8661,-116.9323 399.7635,-111.1802 389.221,-110.1283 390.8661,-116.9323"/>
</g>
<!-- ensemble/m1 -->
<g id="node6" class="node">
<title>ensemble/m1</title>
<ellipse fill="none" stroke="#000000" cx="585.2712" cy="-72" rx="27" ry="18"/>
<text text-anchor="middle" x="585.2712" y="-68.3" font-family="Times,serif" font-size="14.00" fill="#000000">m1</text>
</g>
<!-- ensemble&#45;&gt;ensemble/m1 -->
<g id="edge4" class="edge">
<title>ensemble&#45;&gt;ensemble/m1</title>
<path fill="none" stroke="#000000" d="M513.6418,-86.2172C525.7485,-83.8142 538.1371,-81.3553 549.1335,-79.1727"/>
<polygon fill="#000000" stroke="#000000" points="550.0679,-82.5556 559.1952,-77.1756 548.7051,-75.6895 550.0679,-82.5556"/>
</g>
<!-- ensemble/m2 -->
<g id="node7" class="node">
<title>ensemble/m2</title>
<ellipse fill="none" stroke="#000000" cx="585.2712" cy="-126" rx="27" ry="18"/>
<text text-anchor="middle" x="585.2712" y="-122.3" font-family="Times,serif" font-size="14.00" fill="#000000">m2</text>
</g>
<!-- ensemble&#45;&gt;ensemble/m2 -->
<g id="edge5" class="edge">
<title>ensemble&#45;&gt;ensemble/m2</title>
<path fill="none" stroke="#000000" d="M512.1143,-110.3627C524.8132,-113.0771 537.9014,-115.8747 549.4343,-118.3399"/>
<polygon fill="#000000" stroke="#000000" points="549.0219,-121.8307 559.5326,-120.4984 550.4852,-114.9853 549.0219,-121.8307"/>
</g>
<!-- final -->
<g id="node8" class="node">
<title>final</title>
<ellipse fill="none" stroke="#000000" cx="585.2712" cy="-18" rx="31.3957" ry="18"/>
<text text-anchor="middle" x="585.2712" y="-14.3" font-family="Times,serif" font-size="14.00" fill="#000000">final</text>
</g>
<!-- ensemble&#45;&gt;final -->
<g id="edge7" class="edge">
<title>ensemble&#45;&gt;final</title>
<path fill="none" stroke="#000000" d="M539.419,-46.0026C544.8877,-42.6628 550.155,-39.446 555.048,-36.4577"/>
<polygon fill="#000000" stroke="#000000" points="556.9094,-39.4221 563.6195,-31.223 553.261,-33.4481 556.9094,-39.4221"/>
</g>
</g>
</svg>
